<svg width="300" height="472" viewBox="0 0 300 472" fill="none" xmlns="http://www.w3.org/2000/svg">
<path d="M-306.963 16.3529C-263.429 -2.56119 -212.737 -5.37341 -168.254 12.1477C-153.84 17.8021 -140.355 25.5848 -128.247 35.2364C-120.906 30.8863 -113.11 27.3537 -104.999 24.7022C-80.5891 16.7561 -54.2022 17.6505 -30.6198 28.0512C-6.28855 38.7724 12.7351 57.786 25.7159 80.7672C53.5623 130.058 54.2089 189.134 66.5388 243.119C72.5538 269.511 81.503 296.01 98.55 317.454C114.434 337.38 136.919 352.126 162.904 353.282C173.151 353.742 183.354 351.598 192.876 347.707C192.252 346.18 191.631 344.647 190.989 343.073C181.554 319.246 171.922 291.651 178.905 265.926C184.475 245.419 204.24 229.617 225.748 236.451C242.809 241.875 255.253 259.437 256.558 277.009C258.176 298.896 246.616 319.935 231.729 335.14C224.688 342.297 216.647 348.397 207.855 353.246C210.775 359.564 213.91 365.763 217.26 371.846C230.353 395.56 246.93 417.177 266.436 435.974C275.903 445.028 286.056 453.337 296.803 460.828C302.856 465.067 296.188 474.412 290.129 470.168C249.87 441.933 218.107 402.71 197.509 358.196C190.216 361.209 182.554 363.234 174.724 364.215C149.822 367.221 124.854 357.811 106.06 341.681C63.1206 304.823 54.2223 245.58 45.6757 192.806C37.3812 141.576 28.0815 80.9137 -17.4705 48.5882C-38.0961 33.9534 -63.8851 27.5768 -88.8581 32.29C-99.4364 34.3282 -109.633 38.0005 -119.082 43.175C-116.717 45.3961 -114.427 47.6991 -112.208 50.0845C-95.3832 68.2136 -82.6548 92.1723 -85.3166 117.588C-87.8029 141.473 -103.473 166.609 -128.181 171.983C-150.885 176.919 -173.26 162.355 -179.957 140.614C-187.395 116.43 -179.118 89.4938 -165.139 69.3175C-157.767 58.7456 -148.694 49.4679 -138.29 41.8609L-139.901 40.6584C-176.666 13.6933 -224.844 6.33712 -268.907 15.9446C-280.353 18.4706 -291.524 22.1116 -302.26 26.8153C-309.016 29.776 -313.765 19.3062 -306.963 16.3529ZM219.384 331.062C233.87 318.255 247.25 297.873 245.117 277.643C243.523 262.541 231.457 246.551 215.409 246.192C206.492 245.995 198.842 251.936 194.2 259.212C187.431 269.814 187.177 283.553 188.873 295.632C190.732 308.839 195.111 321.712 199.841 334.166C200.922 337.014 202.045 339.843 203.21 342.654C208.983 339.352 214.403 335.468 219.384 331.062ZM-150.147 68.5623C-165.229 86.6812 -176.17 112.82 -169.297 136.523C-163.43 156.771 -140.806 167.542 -121.795 157.548C-100.151 146.176 -92.8155 117.436 -98.5903 95.2207C-103.201 77.4142 -115.24 61.77 -129.128 49.385C-136.966 54.8025 -144.036 61.2532 -150.147 68.5623Z" fill="#062DFF"/>
</svg>
