<?xml version="1.0" encoding="UTF-8"?>
<svg version="1.1" xmlns="http://www.w3.org/2000/svg" width="512" height="512">
<path d="M0 0 C34.32 0 68.64 0 104 0 C104 37.62 104 75.24 104 114 C121.46563975 104.16117324 121.46563975 104.16117324 138.8125 94.125 C149.296416 87.98585573 159.81141771 81.90228934 170.33984375 75.83984375 C174.38861368 73.50807564 178.43369126 71.17016138 182.47399902 68.82377625 C184.88107881 67.42600576 187.28929563 66.03020061 189.6975708 64.63449097 C191.40413021 63.64436085 193.10906455 62.65143149 194.81396484 61.65844727 C195.84344238 61.06217529 196.87291992 60.46590332 197.93359375 59.8515625 C198.84165771 59.32385254 199.74972168 58.79614258 200.68530273 58.25244141 C203 57 203 57 206 56 C206.3717334 56.66829834 206.7434668 57.33659668 207.12646484 58.02514648 C216.46274397 74.80127303 216.46274397 74.80127303 226.10351562 91.40307617 C231.21823511 100.03159148 236.21423335 108.72854642 241.2109375 117.42578125 C243.67216246 121.70800991 246.15662122 125.97514948 248.6640625 130.23046875 C249.22818848 131.1956543 249.79231445 132.16083984 250.37353516 133.15527344 C251.43548615 134.97184407 252.50515001 136.7839339 253.58349609 138.59082031 C254.05094238 139.39487305 254.51838867 140.19892578 255 141.02734375 C255.4125 141.72593506 255.825 142.42452637 256.25 143.14428711 C257 145 257 145 256 148 C253.88061523 149.49536133 253.88061523 149.49536133 251.05859375 151.08203125 C249.48972412 151.97426392 249.48972412 151.97426392 247.88916016 152.88452148 C246.18058838 153.83887085 246.18058838 153.83887085 244.4375 154.8125 C243.24990547 155.48472989 242.06290103 156.15800322 240.87646484 156.83227539 C239.04797605 157.87116427 237.21908979 158.90928386 235.38824463 159.9440155 C229.59904083 163.21613866 223.85992492 166.57126404 218.125 169.9375 C209.94228065 174.72462274 201.72986096 179.45788474 193.4956665 184.1557312 C191.70747517 185.17610185 189.91982731 186.19741839 188.13232422 187.21899414 C182.76284321 190.2867942 177.38918494 193.34671493 172.00390625 196.38671875 C170.25250506 197.38263824 168.50119605 198.37871986 166.75 199.375 C165.95166748 199.82125732 165.15333496 200.26751465 164.33081055 200.72729492 C162.52043894 201.76176373 160.75392693 202.87247555 159 204 C159 204.66 159 205.32 159 206 C159.57105469 206.32049316 160.14210938 206.64098633 160.73046875 206.97119141 C172.76548817 213.73251889 184.74760889 220.57392662 196.65771484 227.55297852 C203.85626605 231.76516794 211.08775521 235.91688706 218.33569336 240.04321289 C223.56195013 243.02037513 228.7810595 246.01003667 234 249 C235.66506592 249.95229492 235.66506592 249.95229492 237.36376953 250.92382812 C240.47758311 252.71006843 243.58366516 254.50898968 246.6875 256.3125 C247.62029785 256.84560791 248.5530957 257.37871582 249.51416016 257.92797852 C250.35897949 258.42225342 251.20379883 258.91652832 252.07421875 259.42578125 C252.81244873 259.85286377 253.55067871 260.27994629 254.3112793 260.7199707 C256 262 256 262 257 265 C255.74140492 267.66797539 254.41798406 270.14494757 252.9375 272.6875 C252.48850342 273.47640625 252.03950684 274.2653125 251.5769043 275.078125 C250.0638299 277.72619705 248.53384522 280.363909 247 283 C246.46858398 283.91604004 245.93716797 284.83208008 245.38964844 285.77587891 C242.50841583 290.7381915 239.614932 295.6932181 236.71484375 300.64453125 C226.34856627 318.35530398 216.16130127 336.17103882 206 354 C198.13592258 350.17604089 190.51784337 346.0880723 183 341.625 C180.8965103 340.38686999 178.79231395 339.14993994 176.6875 337.9140625 C175.59695313 337.2737207 174.50640625 336.63337891 173.3828125 335.97363281 C167.6125331 332.60708124 161.80561582 329.30506144 156 326 C146.07844394 320.34825585 136.19037905 314.64211563 126.33984375 308.8671875 C118.92313868 304.52204716 111.46496732 300.26569561 104 296 C104 333.62 104 371.24 104 410 C69.68 410 35.36 410 0 410 C0 372.38 0 334.76 0 296 C-18.02131937 306.29789679 -36.02884652 316.61546308 -54 327 C-69.64512961 336.03797727 -85.30238963 345.05342445 -101 354 C-103.30552433 351.04996214 -105.22399315 348.01454714 -107.08203125 344.765625 C-107.67693359 343.72921875 -108.27183594 342.6928125 -108.88476562 341.625 C-109.52091797 340.51125 -110.15707031 339.3975 -110.8125 338.25 C-112.1719515 335.87950415 -113.53331061 333.51010527 -114.89453125 331.140625 C-115.23936554 330.53980103 -115.58419983 329.93897705 -115.93948364 329.31994629 C-119.26447184 323.52993953 -122.62888347 317.76325695 -126 312 C-131.04407588 303.36753566 -136.06354182 294.7211469 -141.0625 286.0625 C-141.68189453 284.99064453 -142.30128906 283.91878906 -142.93945312 282.81445312 C-144.097919 280.80585347 -145.25259905 278.79506385 -146.40283203 276.78173828 C-147.44635221 274.96427131 -148.50408257 273.15486993 -149.57763672 271.35498047 C-150.04572754 270.55592285 -150.51381836 269.75686523 -150.99609375 268.93359375 C-151.6156897 267.89609985 -151.6156897 267.89609985 -152.24780273 266.83764648 C-153 265 -153 265 -152 262 C-149.91235352 260.52050781 -149.91235352 260.52050781 -147.12890625 258.953125 C-146.09314453 258.36337891 -145.05738281 257.77363281 -143.99023438 257.16601562 C-142.85908203 256.53373047 -141.72792969 255.90144531 -140.5625 255.25 C-139.38161359 254.58104434 -138.20128302 253.9111066 -137.02148438 253.24023438 C-134.56741044 251.84578107 -132.11098596 250.45560687 -129.65283203 249.06835938 C-124.07920518 245.91832848 -118.54141894 242.70622772 -113 239.5 C-110.84262182 238.25490697 -108.68506888 237.01011668 -106.52734375 235.765625 C-105.45597168 235.14751953 -104.38459961 234.52941406 -103.28076172 233.89257812 C-99.93862144 231.96459245 -96.59628515 230.03694696 -93.25390625 228.109375 C-92.14337891 227.4687915 -91.03285156 226.82820801 -89.88867188 226.16821289 C-87.69626926 224.90384799 -85.50356786 223.64000103 -83.31054688 222.37670898 C-78.26933721 219.47120517 -73.23418434 216.55642826 -68.21484375 213.61328125 C-66.88634399 212.83645996 -66.88634399 212.83645996 -65.53100586 212.04394531 C-63.88774342 211.08211292 -62.24650284 210.11681477 -60.60766602 209.14746094 C-55.22318174 206 -55.22318174 206 -53 206 C-53 205.34 -53 204.68 -53 204 C-53.76828125 203.79761719 -54.5365625 203.59523437 -55.328125 203.38671875 C-60.48959164 201.43744146 -65.02092552 198.63392302 -69.75 195.8125 C-71.91367549 194.53580222 -74.07775166 193.25978329 -76.2421875 191.984375 C-77.91619629 190.9953418 -77.91619629 190.9953418 -79.62402344 189.98632812 C-85.02126394 186.81074607 -90.44767158 183.6862903 -95.875 180.5625 C-98.04818149 179.30990347 -100.22135854 178.05729925 -102.39453125 176.8046875 C-105.73077109 174.88281492 -109.06721467 172.96129685 -112.40380859 171.04003906 C-118.96177309 167.26347535 -125.51590189 163.4804056 -132.06640625 159.69091797 C-134.83037955 158.09776891 -137.60149106 156.51787788 -140.375 154.94140625 C-141.93763158 154.04450004 -143.50014134 153.14738155 -145.0625 152.25 C-145.76511963 151.85578857 -146.46773926 151.46157715 -147.19165039 151.05541992 C-151.88659871 148.34020388 -151.88659871 148.34020388 -153 145 C-151.74140492 142.33202461 -150.41798406 139.85505243 -148.9375 137.3125 C-148.26400513 136.12914062 -148.26400513 136.12914062 -147.5769043 134.921875 C-146.0638299 132.27380295 -144.53384522 129.636091 -143 127 C-142.46858398 126.08395996 -141.93716797 125.16791992 -141.38964844 124.22412109 C-138.50841583 119.2618085 -135.614932 114.3067819 -132.71484375 109.35546875 C-122.34856627 91.64469602 -112.16130127 73.82896118 -102 56 C-93.03548399 60.29046567 -84.45017071 64.99545427 -75.91796875 70.08203125 C-70.16636965 73.50869321 -64.36444676 76.84702431 -58.5625 80.1875 C-57.46123779 80.82204102 -56.35997559 81.45658203 -55.2253418 82.11035156 C-52.9589569 83.41608772 -50.69243527 84.72158656 -48.42578125 86.02685547 C-42.80318444 89.26529813 -37.18285327 92.50766575 -31.5625 95.75 C-30.58289307 96.31485107 -29.60328613 96.87970215 -28.59399414 97.46166992 C-19.05599284 102.96300373 -9.52910142 108.48315181 0 114 C0 76.38 0 38.76 0 0 Z " fill="#000000" transform="translate(204,51)"/>
</svg>
