<svg width="376" height="319" viewBox="0 0 376 319" fill="none" xmlns="http://www.w3.org/2000/svg">
<path d="M708.007 292.028C656.456 296.179 604.892 300.331 553.246 302.933C501.599 305.536 449.987 306.685 398.403 304.794C355.196 303.181 311.197 300.832 269.051 289.803C232.677 280.287 197.002 263.34 172.482 232.23C151.197 205.221 143.379 169.197 146.977 134.598C147.401 130.459 148.002 126.34 148.782 122.239C158.117 123.462 167.527 123.916 176.927 123.599C195.04 123.057 212.947 119.373 229.942 112.693C248.819 105.14 268.531 92.184 277.32 71.98C285.316 53.6154 280.822 31.6448 264.229 20.6886C250.139 11.39 231.522 11.848 216.03 16.3264C181.749 26.1994 156.525 59.6134 143.906 93.4636C142.209 98.0196 140.72 102.673 139.439 107.422C125.829 104.735 112.552 100.405 99.8649 94.5177C68.9907 80.1518 41.42 57.0179 23.1855 26.672C18.7003 19.1996 14.7869 11.3565 11.4828 3.21823C10.1149 -0.0606453 5.61441 -0.802204 2.96062 0.848137C-0.226665 2.82564 -0.616533 6.60615 0.730881 9.90683C15.2173 45.4728 41.3653 74.7427 72.5473 94.4596C92.2915 106.943 113.936 115.663 136.505 120.225C131.307 147.852 132.976 177.166 142.442 203.309C156.566 242.343 187.344 270.617 222.781 287.201C260.966 305.071 302.805 311.418 344.082 314.827C397.876 319.248 451.889 319.786 505.799 318.157C560.044 316.514 614.201 312.697 668.309 308.444C681.533 307.407 694.756 306.35 707.979 305.274C715.954 304.627 716.05 291.417 708.007 292.028ZM191.038 45.1965C202.877 34.8219 217.028 27.748 232.479 26.6865C245.625 25.7995 260.173 29.0493 266.445 41.9976C275.07 59.8169 260.768 78.3487 247.636 88.229C233.163 99.1343 215.489 104.951 198.151 108.135C182.836 110.885 167.232 111.306 151.805 109.385C158.809 84.5575 172.187 61.7145 191.038 45.1965Z" fill="#FAE209"/>
</svg>
